This is KSHOWNOW release :)

Format : AVI

Format/Info : Audio Video Interleave

File size : 1.76 GiB

Duration : 1h 33mn

Overall bit rate : 2 693 Kbps

Writing library : VirtualDub build 32842/release



Video

ID : 0

Format : AVC

Format/Info : Advanced Video Codec

Format profile : High@L4.1

Format settings, CABAC : Yes

Format settings, ReFrames : 4 frames

Codec ID : H264

Duration : 1h 33mn

Bit rate : 2 490 Kbps

Width : 1 280 pixels

Height : 720 pixels

Display aspect ratio : 16:9

Frame rate : 29.970 fps

Color space : YUV

Chroma subsampling : 4:2:0

Bit depth : 8 bits

Scan type : Progressive

Bits/(Pixel*Frame) : 0.090

Stream size : 1.63 GiB (92%)

Writing library : x264 core 125 r2200bm 999b753



Audio

ID : 1

Format : MPEG Audio

Format version : Version 1

Format profile : Layer 3

Mode : Joint stereo

Mode extension : MS Stereo

Codec ID : 55

Codec ID/Hint : MP3

Duration : 1h 33mn

Bit rate mode : Constant

Bit rate : 192 Kbps

Channel(s) : 2 channels

Sampling rate : 48.0 KHz

Compression mode : Lossy

Stream size : 129 MiB (7%)

Alignment : Split accross interleaves

Interleave, duration : 33 ms (1.00 video frame)

Interleave, preload duration : 500 ms

Writing library : LAME3.99.4